<svg width="25" height="25" viewBox="0 0 25 25" fill="none" xmlns="http://www.w3.org/2000/svg">
<path d="M19.2959 5H15.6938L15.9582 9.76329C15.983 10.2103 16.1373 10.6401 16.4021 10.9995L17.1983 12.0803C17.5559 12.5657 17.7084 13.1742 17.6223 13.7726L16.5469 21.25H20.1512L21.2265 13.7734C21.3126 13.1745 21.1599 12.5656 20.8017 12.08L20.005 10.9998C19.7397 10.6402 19.5851 10.21 19.5602 9.76253L19.2959 5Z" fill="#323232"/>
<path d="M13.324 5H9.72187L9.98628 9.76329C10.0111 10.2103 10.1654 10.6401 10.4302 10.9995L11.2121 12.0609C11.5781 12.5578 11.7289 13.1831 11.6298 13.7939L10.4225 21.2401H14.0269L15.234 13.7948C15.3331 13.1834 15.1821 12.5576 14.8155 12.0606L14.033 10.9998C13.7678 10.6402 13.6132 10.21 13.5883 9.76253L13.324 5Z" fill="#323232"/>
<path d="M7.35209 5H3.75L4.0144 9.76329C4.03921 10.2103 4.19356 10.6401 4.4583 10.9995L5.25454 12.0803C5.61214 12.5657 5.76457 13.1742 5.6785 13.7726L4.60313 21.25H8.20746L9.28272 13.7734C9.36885 13.1745 9.21611 12.5656 8.85794 12.08L8.06118 10.9998C7.79593 10.6402 7.64129 10.21 7.61646 9.76253L7.35209 5Z" fill="#323232"/>
</svg>
