<svg width="60" height="19" viewBox="0 0 60 19" fill="none" xmlns="http://www.w3.org/2000/svg">
<path d="M28.7131 10.8186V18.9524H26.0465V5.25343H28.6061V7.48307H28.7756C29.0907 6.75769 29.5842 6.17501 30.2561 5.73503C30.9339 5.29505 31.7871 5.07505 32.8157 5.07505C33.7492 5.07505 34.5667 5.27126 35.2683 5.66368C35.9699 6.05015 36.5139 6.62689 36.9004 7.39388C37.2869 8.16088 37.4801 9.10922 37.4801 10.2389V18.9524H34.8135V10.56C34.8135 9.56704 34.5548 8.79113 34.0375 8.23223C33.5203 7.66739 32.8097 7.38497 31.906 7.38497C31.2876 7.38497 30.7377 7.51874 30.2561 7.7863C29.7804 8.05386 29.4029 8.44628 29.1234 8.96355C28.8499 9.47489 28.7131 10.0932 28.7131 10.8186Z" fill="#323232"/>
<path d="M42.2466 10.8186V18.9524H39.5799V5.25343H42.1396V7.48307H42.309C42.6241 6.75769 43.1176 6.17501 43.7895 5.73503C44.4673 5.29505 45.3205 5.07505 46.3491 5.07505C47.2826 5.07505 48.1001 5.27126 48.8017 5.66368C49.5033 6.05015 50.0474 6.62689 50.4338 7.39388C50.8203 8.16088 51.0135 9.10922 51.0135 10.2389V18.9524H48.3469V10.56C48.3469 9.56704 48.0882 8.79113 47.571 8.23223C47.0537 7.66739 46.3432 7.38497 45.4394 7.38497C44.8211 7.38497 44.2711 7.51874 43.7895 7.7863C43.3138 8.05386 42.9363 8.44628 42.6568 8.96355C42.3833 9.47489 42.2466 10.0932 42.2466 10.8186Z" fill="#323232"/>
<path d="M3.17299 10.9219V18.9848H0V5.40524H3.06652V7.61545H3.23509C3.54859 6.89639 4.03953 6.31879 4.70791 5.88264C5.38222 5.44649 6.23101 5.22842 7.2543 5.22842C8.18294 5.22842 8.99625 5.42292 9.69421 5.81192C10.3922 6.19502 10.9334 6.76673 11.3179 7.52704C11.7023 8.28735 10.8543 9.22743 10.8543 10.3473V18.9848H7.68131V10.6655C7.68131 9.68126 8.98442 8.91211 8.46982 8.35808C7.95522 7.79816 7.24838 7.5182 6.34931 7.5182C5.73416 7.5182 5.18702 7.65081 4.70791 7.91604C4.23472 8.18126 3.85912 8.57026 3.58112 9.08303C3.30903 9.5899 3.17299 10.2029 3.17299 10.9219Z" fill="#323232"/>
<path d="M10.9385 5.89444C10.2701 6.33059 9.08798 7.42647 8.77449 8.14553L9.12052 9.61311C9.39852 9.10034 10.4653 8.19306 10.9385 7.92783C11.4176 7.66261 11.9648 7.52999 12.5799 7.52999C13.479 7.52999 14.1858 7.80996 14.7004 8.36988C15.215 8.9239 15.4723 9.69306 15.4723 10.6773V18.9966H18.1252V10.3591C18.1252 9.23923 17.9329 8.29915 17.5485 7.53884C17.164 6.77852 16.6228 6.20681 15.9248 5.82371C15.2268 5.43471 14.4135 5.24022 13.4849 5.24022C12.4616 5.24022 11.6128 5.45829 10.9385 5.89444Z" fill="#323232"/>
<path d="M59.7503 4.97372V7.11417H52.2676V4.97372H59.7503ZM54.2743 1.69168H56.9409V14.6504C56.9409 15.1677 57.0182 15.5571 57.1728 15.8187C57.3274 16.0744 57.5266 16.2498 57.7704 16.3449C58.0201 16.4341 58.2906 16.4787 58.5819 16.4787C58.796 16.4787 58.9833 16.4638 59.1438 16.4341C59.3043 16.4044 59.4292 16.3806 59.5184 16.3627L60 18.5656C59.8454 18.6251 59.6254 18.6845 59.34 18.744C59.0546 18.8094 58.6979 18.8451 58.2698 18.851C57.5682 18.8629 56.9142 18.7381 56.3077 18.4764C55.7012 18.2148 55.2107 17.8105 54.8361 17.2635C54.4616 16.7165 54.2743 16.0298 54.2743 15.2033V1.69168Z" fill="#323232"/>
<path d="M21.3108 18.9966V5.29764H23.9775V18.9966H21.3108ZM22.6575 3.18393C22.1937 3.18393 21.7954 3.02934 21.4624 2.72017C21.1354 2.40504 20.9719 2.03046 20.9719 1.59642C20.9719 1.15644 21.1354 0.781862 21.4624 0.472684C21.7954 0.157561 22.1937 0 22.6575 0C23.1213 0 23.5167 0.157561 23.8437 0.472684C24.1766 0.781862 24.3431 1.15644 24.3431 1.59642C24.3431 2.03046 24.1766 2.40504 23.8437 2.72017C23.5167 3.02934 23.1213 3.18393 22.6575 3.18393Z" fill="#323232"/>
</svg>
